<svg version="1.1" viewBox="0.0 0.0 157.61679790026247 155.83727034120736" fill="none" stroke="none" stroke-linecap="square" stroke-miterlimit="10" xmlns:xlink="http://www.w3.org/1999/xlink" xmlns="http://www.w3.org/2000/svg"><clipPath id="p.0"><path d="m0 0l157.61679 0l0 155.83727l-157.61679 0l0 -155.83727z" clip-rule="nonzero"/></clipPath><g clip-path="url(#p.0)"><path fill="#000000" fill-opacity="0.0" d="m0 0l157.61679 0l0 155.83727l-157.61679 0z" fill-rule="evenodd"/><path fill="#000000" d="m0 0l157.6063 0l0 153.82677l-157.6063 0z" fill-rule="evenodd"/><path stroke="#000000" stroke-width="1.0" stroke-linejoin="round" stroke-linecap="butt" d="m0 0l157.6063 0l0 153.82677l-157.6063 0z" fill-rule="evenodd"/><path fill="#000000" fill-opacity="0.0" d="m27.918634 -8.3412075l123.77953 0l0 174.51968l-123.77953 0z" fill-rule="evenodd"/><path fill="#f3f3f3" d="m71.48113 124.851295q-9.562496 0 -16.624996 -3.25q-7.1875 -3.1875 -11.28125 -9.8125q-4.09375 -6.625 -4.46875 -16.8125l0.125 -0.375l17.125 0q0.5 8.9375 4.0 12.46875q3.5 3.53125 9.312496 3.53125q3.6875 0 6.625 -1.625q2.8125 -1.625 4.46875 -4.84375q1.65625 -3.21875 1.65625 -7.90625l0 -50.812496l-12.25 -1.875l0 -11.0l40.1875 0l0 11.0l-9.75 1.875l0 50.812496q0 8.6875 -3.375 15.1875q-3.375 6.4375 -9.875 9.9375q-6.5 3.5 -15.875 3.5z" fill-rule="nonzero"/><path fill="#000000" fill-opacity="0.0" d="m605.3097 202.07349l356.8189 0l0 174.51968l-356.8189 0z" fill-rule="evenodd"/></g></svg>